<svg xmlns="http://www.w3.org/2000/svg" viewBox="0 0 102 101"><defs><linearGradient id="a" x1="100%" x2="0%" y1="0%" y2="100%"><stop offset="0%" stop-color="#02DF8A"/><stop offset="100%" stop-color="#7CF3F5"/></linearGradient></defs><g fill="url(#a)" fill-rule="evenodd" transform="translate(-267 -793)"><path fill-rule="nonzero" d="M318 893.2c-27.7 0-50.2-22.2-50.2-49.7 0-27.5 22.5-49.7 50.2-49.7 27.7 0 50.2 22.2 50.2 49.7 0 27.5-22.5 49.7-50.2 49.7zm0-7.6c23.5 0 42.5-19 42.5-42 0-23.3-19-42.2-42.5-42.2s-42.5 19-42.5 42c0 23.3 19 42.2 42.5 42.2z"/><path d="M339.5 841c0-7.4-5-12.8-12-12.8-3.6 0-5.6 1.4-8.8 4.4-3.2-3-5.2-4.4-9-4.4-6.8 0-11.8 5.4-11.8 12.8 0 3.2 1 6 3 8.4l16.8 15.2c.5.4 1.3.4 1.8 0l15-13.6 1-.8.4-.4.3-.3c2-2.4 3.2-5.3 3.2-8.5"/></g></svg>