<svg xmlns="http://www.w3.org/2000/svg" viewBox="0 0 101 100"><defs><linearGradient id="a" x1="9.7%" x2="91.1%" y1="89.9%" y2="7.9%"><stop offset="0%" stop-color="#FF7854"/><stop offset="100%" stop-color="#FD267D"/></linearGradient></defs><g fill="url(#a)" fill-rule="evenodd" transform="translate(-139 -793)"><path fill-rule="nonzero" d="M190 893c-27.8 0-50.2-22.2-50.2-49.6 0-27.4 22.4-49.6 50-49.6 27.8 0 50.2 22.2 50.2 49.6 0 27.4-22.4 49.6-50 49.6zm0-7.6c23.3 0 42.3-18.8 42.3-42s-19-42-42.4-42c-23.5 0-42.5 18.8-42.5 42s19 42 42.4 42z"/><path d="M197 845l11-11c.8-1 .8-2.5 0-3.5l-3.7-3.6c-1-1-2.5-1-3.4 0l-11 11-11-11c-1-1-2.6-1-3.5 0l-3.6 3.5c-1 1-1 2.5 0 3.4l11 11-11 11c-1 .8-1 2.4 0 3.3l3.5 3.6c1 1 2.4 1 3.4 0l11-11 11 11c.8 1 2.3 1 3.3 0l3.6-3.7c.8-1 .8-2.5 0-3.4l-11-11z"/></g></svg>